<?xml version="1.0" encoding="utf-8"?>
<!-- Generator: Adobe Illustrator 17.1.0, SVG Export Plug-In . SVG Version: 6.00 Build 0)  -->
<!DOCTYPE svg PUBLIC "-//W3C//DTD SVG 1.1//EN" "http://www.w3.org/Graphics/SVG/1.1/DTD/svg11.dtd">
<svg version="1.1" xmlns="http://www.w3.org/2000/svg" xmlns:xlink="http://www.w3.org/1999/xlink" x="0px" y="0px"
	 viewBox="0 0 500 500" enable-background="new 0 0 500 500" xml:space="preserve">
<g id="BACKGROUND">
	<rect x="0" y="0" fill="#1D1B30" width="500" height="500"/>
</g>
<g id="OBJECTS">
	<g>
		<linearGradient id="SVGID_1_" gradientUnits="userSpaceOnUse" x1="286.8156" y1="289.1352" x2="236.6089" y2="270.4141">
			<stop  offset="0.2739" style="stop-color:#91FFDB"/>
			<stop  offset="0.7113" style="stop-color:#4CC1FF"/>
			<stop  offset="1" style="stop-color:#1D48FF"/>
		</linearGradient>
		<path fill="url(#SVGID_1_)" d="M272.6,249.1c-3.1-10-9.4-17.1-17.3-22.6l-7.6,22.6l-11.3,33L224,316.6c24.3-3.6,40.7-17,47.3-34.4
			c2.2-5.9,3.4-12.2,3.4-18.8C274.7,258.1,273.9,253.4,272.6,249.1z"/>
		<linearGradient id="SVGID_2_" gradientUnits="userSpaceOnUse" x1="154.6219" y1="208.4957" x2="215.6072" y2="230.0533">
			<stop  offset="0.2224" style="stop-color:#91FFDB"/>
			<stop  offset="0.4662" style="stop-color:#74E5EA"/>
			<stop  offset="0.7591" style="stop-color:#4CC1FF"/>
			<stop  offset="0.8011" style="stop-color:#46B2FF"/>
			<stop  offset="0.8815" style="stop-color:#378BFF"/>
			<stop  offset="0.9914" style="stop-color:#1F4DFF"/>
			<stop  offset="1" style="stop-color:#1D48FF"/>
		</linearGradient>
		<path fill="url(#SVGID_2_)" d="M255.2,226.5c0.1,0,0.1,0.1,0.2,0.1l-7.6,22.6l-11.3,33L224,316.6c-0.1,0,0.1,0,0,0
			c-0.1,0,0.1,0,0,0c-4.1,0.6-8.8,0.9-13.4,0.9c-11,0-21.3-1.6-30.4-4.7c-22.2-7.6-37.4-24.4-38.2-49.6h45.6
			c0.6,6.1,2.6,10.8,5.8,14.1c3.9,4,9.4,6,16,6c12.5,0,20.5-6.3,20.5-16.5c0-11.4-10.8-16.7-24.8-21.4c-26-8.7-62.9-15.5-62.6-56
			c0-33.3,27.3-51.8,64.1-51.8c13.7,0,25.7,2.4,35.7,7.1h0c14.5,6.8,24.6,18.3,28.5,33.9h-35.9v11.6h-8.7c0-0.5-0.1-0.9-0.1-1.4
			c-1.3-10.4-9.1-16.7-20.1-16.9c-10.3-0.2-18,5-18,16c0,12.1,13.6,17.2,30.1,22.7C230.3,214.6,244.2,218.9,255.2,226.5z"/>
	</g>
	<g>
		<linearGradient id="SVGID_3_" gradientUnits="userSpaceOnUse" x1="180.2028" y1="227.4899" x2="358.034" y2="227.4899">
			<stop  offset="0" style="stop-color:#91FFDB"/>
			<stop  offset="0.5054" style="stop-color:#4CC1FF"/>
			<stop  offset="1" style="stop-color:#1D48FF"/>
		</linearGradient>
		<path fill="url(#SVGID_3_)" d="M358,313c-9.1,3.1-19.3,4.4-30.3,4.4c-4.6,0-9.3-0.3-13.4-0.9l-1.2-3.2l-0.1-0.4l-10.8-30.7h-30.9
			c2.2-5.9,3.4-12.2,3.4-18.8c0-5.3-0.7-10.1-2-14.3h18.5l-21.8-64.3l-0.2,0.6l-8.1,24.1l0,0l-5.7,17l-7.5,22.5l0,0.1l-11.2,33
			l0,0.1l-6.3,17.1l-5.1,13.9l-1.2,3.4c-4.1,0.6-8.8,0.9-13.4,0.9c-10.5,0-20.4-1.4-29.2-4.3c-0.3-0.1-0.6-0.2-1-0.3
			c-0.1,0-0.1,0-0.2-0.1l11.3-30.7l1.8-4.9l11.8-31.9l12.8-34.8l8.1-21.8l16.3-44.2h0l2.6-7.1h49.6L358,313z"/>
		<linearGradient id="SVGID_4_" gradientUnits="userSpaceOnUse" x1="307.0718" y1="264.0317" x2="270.7466" y2="266.6122">
			<stop  offset="0.5846" style="stop-color:#1D48FF;stop-opacity:0"/>
			<stop  offset="0.8838" style="stop-color:#1D48FF"/>
		</linearGradient>
		<path fill="url(#SVGID_4_)" d="M271.3,282.2c2.2-5.9,3.4-12.2,3.4-18.8c0-5.3-0.7-10.1-2-14.3h15.8l7.1,33H271.3z"/>
	</g>
</g>
<g id="TEXT">
	
		<text transform="matrix(1 0 0 1 131.9891 353.2838)" fill="#91FFDB" font-family="'Cambria-Italic'" font-size="21.9066" letter-spacing="4">STEPHANY AKINYI </text>
</g>
</svg>
